<svg width="521" height="737" viewBox="0 0 521 737" fill="none" xmlns="http://www.w3.org/2000/svg">
<g clip-path="url(#clip0_1900_5300)">
<path d="M533.943 -11.5498H-13.2266V745.37H533.943V-11.5498Z" fill="#36BFA8"/>
<path d="M98.0512 89.22C97.4112 89.22 96.9712 89.01 96.7312 88.58C96.4912 88.15 96.5212 87.62 96.8112 86.98L107.811 61.94C108.241 60.95 108.891 60.46 109.771 60.46C110.171 60.46 110.541 60.57 110.871 60.8C111.201 61.03 111.481 61.41 111.691 61.94L122.731 86.98C123.021 87.62 123.061 88.15 122.851 88.58C122.641 89.01 122.211 89.22 121.571 89.22C121.091 89.22 120.701 89.09 120.411 88.84C120.121 88.59 119.881 88.22 119.691 87.74L117.091 81.74H102.411L99.8512 87.74C99.4212 88.73 98.8212 89.22 98.0512 89.22ZM109.731 64.58L103.611 78.98H115.931L109.811 64.58H109.731Z" fill="#F7F7F6"/>
<path d="M142.455 89.22C141.385 89.22 140.855 88.66 140.855 87.54V72.1H133.015V74.58C133.015 77.35 132.835 79.69 132.475 81.58C132.115 83.47 131.525 85.02 130.715 86.22C129.905 87.42 128.815 88.35 127.455 89.02C127.005 89.21 126.595 89.23 126.235 89.1C125.875 88.97 125.605 88.74 125.435 88.42C125.265 88.1 125.215 87.75 125.295 87.38C125.375 87.01 125.645 86.69 126.095 86.42C127.105 85.83 127.895 85.05 128.455 84.08C129.015 83.11 129.405 81.85 129.635 80.3C129.865 78.75 129.975 76.81 129.975 74.46V71.34C129.975 70.11 130.585 69.5 131.815 69.5H142.255C143.485 69.5 144.095 70.11 144.095 71.34V87.54C144.095 88.66 143.545 89.22 142.455 89.22Z" fill="#F7F7F6"/>
<path d="M159.288 89.3001C156.218 89.3001 153.798 88.4001 152.008 86.6001C150.218 84.8001 149.328 82.3501 149.328 79.2601C149.328 77.2601 149.728 75.4901 150.528 73.9601C151.328 72.4301 152.428 71.2401 153.828 70.4001C155.228 69.5601 156.848 69.1401 158.688 69.1401C161.328 69.1401 163.398 69.9901 164.888 71.6801C166.378 73.3701 167.128 75.7001 167.128 78.6601C167.128 79.4901 166.658 79.9001 165.728 79.9001H152.488C152.598 82.1101 153.238 83.8001 154.408 84.9601C155.578 86.1201 157.208 86.7001 159.288 86.7001C160.168 86.7001 161.058 86.5901 161.968 86.3601C162.878 86.1301 163.758 85.7301 164.608 85.1401C165.218 84.7401 165.738 84.6601 166.148 84.9001C166.558 85.1401 166.778 85.5101 166.788 86.0001C166.798 86.4901 166.528 86.9301 165.968 87.3001C165.088 87.9401 164.038 88.4301 162.828 88.7801C161.618 89.1301 160.438 89.3001 159.288 89.3001ZM158.768 71.5401C156.928 71.5401 155.478 72.1101 154.408 73.2601C153.338 74.4101 152.718 75.9101 152.528 77.7801H164.328C164.248 75.8101 163.738 74.2701 162.788 73.1801C161.838 72.0901 160.498 71.5401 158.768 71.5401Z" fill="#F7F7F6"/>
<path d="M173.812 89.2198C172.722 89.2198 172.172 88.6598 172.172 87.5398V70.9798C172.172 69.8598 172.722 69.2998 173.812 69.2998C174.902 69.2998 175.412 69.8598 175.412 70.9798V77.6198H179.052L184.972 70.0198C185.322 69.5898 185.682 69.3598 186.072 69.3198C186.462 69.2798 186.802 69.3698 187.112 69.5798C187.422 69.7898 187.612 70.0898 187.692 70.4798C187.772 70.8698 187.652 71.2698 187.332 71.6998L182.212 78.2598C182.902 78.4998 183.532 78.9298 184.092 79.5398C184.652 80.1498 185.282 81.0498 185.972 82.2198L188.852 86.9798C189.092 87.4298 189.142 87.8398 189.012 88.1998C188.882 88.5598 188.632 88.8298 188.272 89.0198C187.912 89.2098 187.532 89.2498 187.132 89.1598C186.732 89.0698 186.402 88.7898 186.132 88.3398L182.972 83.0598C182.302 81.9698 181.662 81.2198 181.052 80.8198C180.442 80.4198 179.572 80.2198 178.452 80.2198H175.412V87.5398C175.412 88.6598 174.882 89.2198 173.812 89.2198Z" fill="#F7F7F6"/>
<path d="M201.495 89.3001C199.545 89.3001 197.865 88.8801 196.455 88.0401C195.045 87.2001 193.955 86.0101 193.195 84.4801C192.435 82.9501 192.055 81.1501 192.055 79.1001C192.055 76.0101 192.895 73.5701 194.575 71.8001C196.255 70.0301 198.565 69.1401 201.495 69.1401C202.455 69.1401 203.455 69.2901 204.495 69.6001C205.535 69.9101 206.485 70.4101 207.335 71.1001C207.785 71.4201 207.985 71.8201 207.915 72.3001C207.845 72.7801 207.625 73.1401 207.235 73.3801C206.845 73.6201 206.405 73.5701 205.895 73.2201C205.175 72.6901 204.465 72.3101 203.755 72.1001C203.045 71.8901 202.365 71.7801 201.695 71.7801C199.665 71.7801 198.105 72.4101 197.015 73.6801C195.925 74.9501 195.375 76.7701 195.375 79.1401C195.375 81.5101 195.925 83.2901 197.015 84.6401C198.105 85.9901 199.665 86.6601 201.695 86.6601C202.365 86.6601 203.045 86.5501 203.755 86.3401C204.465 86.1301 205.175 85.7501 205.895 85.2201C206.405 84.8701 206.845 84.8301 207.215 85.0801C207.585 85.3301 207.795 85.7001 207.835 86.1801C207.875 86.6601 207.685 87.0501 207.255 87.3401C206.405 88.0301 205.465 88.5301 204.455 88.8401C203.445 89.1501 202.455 89.3001 201.495 89.3001Z" fill="#F7F7F6"/>
<path d="M218.289 89.3001C216.959 89.3001 215.759 89.0401 214.709 88.5201C213.659 88.0001 212.819 87.2901 212.209 86.3801C211.599 85.4701 211.289 84.4601 211.289 83.3401C211.289 81.9301 211.659 80.8101 212.389 79.9801C213.119 79.1501 214.339 78.5601 216.029 78.2001C217.719 77.8401 220.039 77.6601 222.969 77.6601H224.249V76.4201C224.249 74.7701 223.909 73.5701 223.229 72.8401C222.549 72.1101 221.459 71.7401 219.969 71.7401C219.039 71.7401 218.099 71.8601 217.149 72.1001C216.199 72.3401 215.219 72.7301 214.209 73.2601C213.759 73.5001 213.379 73.5501 213.069 73.4001C212.759 73.2501 212.549 73.0101 212.429 72.6801C212.309 72.3501 212.309 72.0001 212.429 71.6401C212.549 71.2801 212.809 71.0101 213.209 70.8201C214.359 70.2301 215.509 69.8101 216.669 69.5401C217.829 69.2701 218.929 69.1401 219.969 69.1401C222.479 69.1401 224.339 69.7501 225.549 70.9801C226.759 72.2101 227.369 74.1101 227.369 76.7001V87.5401C227.369 88.6601 226.879 89.2201 225.889 89.2201C224.849 89.2201 224.329 88.6601 224.329 87.5401V85.5801C223.819 86.7301 223.039 87.6301 221.989 88.3001C220.939 88.9701 219.699 89.3001 218.289 89.3001ZM218.809 86.8601C220.409 86.8601 221.719 86.3101 222.729 85.2001C223.739 84.0901 224.249 82.6901 224.249 80.9801V79.7801H223.009C220.849 79.7801 219.149 79.8801 217.909 80.0801C216.669 80.2801 215.799 80.6301 215.309 81.1201C214.819 81.6101 214.569 82.2901 214.569 83.1401C214.569 84.2301 214.949 85.1301 215.709 85.8201C216.469 86.5101 217.499 86.8601 218.809 86.8601Z" fill="#F7F7F6"/>
<path d="M235.327 89.2197C234.237 89.2197 233.688 88.6597 233.688 87.5397V70.8597C233.688 69.7697 234.237 69.2197 235.327 69.2197C236.417 69.2197 236.927 69.7697 236.927 70.8597V77.5797H247.527V70.8597C247.527 69.7697 248.058 69.2197 249.128 69.2197C250.198 69.2197 250.768 69.7697 250.768 70.8597V87.5397C250.768 88.6597 250.218 89.2197 249.128 89.2197C248.038 89.2197 247.527 88.6597 247.527 87.5397V80.2197H236.927V87.5397C236.927 88.6597 236.397 89.2197 235.327 89.2197Z" fill="#F7F7F6"/>
<path d="M256.455 94.42C255.525 94.42 255.055 93.91 255.055 92.9V87.94C255.055 86.87 255.585 86.34 256.655 86.34H257.135C258.045 84.95 258.695 83.38 259.095 81.62C259.495 79.86 259.695 77.73 259.695 75.22V71.34C259.695 70.11 260.305 69.5 261.535 69.5H271.615C272.845 69.5 273.455 70.11 273.455 71.34V86.34H274.935C276.005 86.34 276.535 86.87 276.535 87.94V92.9C276.535 93.91 276.065 94.42 275.135 94.42C274.205 94.42 273.735 93.91 273.735 92.9V88.94H257.815V92.9C257.815 93.91 257.365 94.42 256.455 94.42ZM260.215 86.34H270.375V72.06H262.575V75.78C262.575 77.78 262.375 79.71 261.975 81.58C261.575 83.45 260.985 85.03 260.215 86.34Z" fill="#F7F7F6"/>
<path d="M282.491 96.4201C281.421 96.4201 280.891 95.8701 280.891 94.7801V70.8601C280.891 69.7701 281.411 69.2201 282.451 69.2201C283.541 69.2201 284.091 69.7701 284.091 70.8601V72.9401C284.651 71.7701 285.521 70.8401 286.691 70.1601C287.861 69.4801 289.211 69.1401 290.731 69.1401C292.461 69.1401 293.981 69.5501 295.271 70.3601C296.561 71.1701 297.561 72.3301 298.271 73.8401C298.981 75.3501 299.331 77.1401 299.331 79.2201C299.331 81.3001 298.981 83.0501 298.271 84.5601C297.561 86.0701 296.561 87.2301 295.271 88.0601C293.981 88.8901 292.461 89.3001 290.731 89.3001C289.241 89.3001 287.901 88.9701 286.731 88.3001C285.561 87.6301 284.691 86.7101 284.131 85.5401V94.7801C284.131 95.8701 283.581 96.4201 282.491 96.4201ZM290.051 86.7001C291.861 86.7001 293.321 86.0501 294.411 84.7601C295.501 83.4701 296.051 81.6201 296.051 79.2201C296.051 76.8201 295.501 74.9401 294.411 73.6601C293.321 72.3801 291.861 71.7401 290.051 71.7401C288.241 71.7401 286.781 72.3801 285.691 73.6601C284.601 74.9401 284.051 76.7901 284.051 79.2201C284.051 81.6501 284.601 83.4701 285.691 84.7601C286.781 86.0501 288.241 86.7001 290.051 86.7001Z" fill="#F7F7F6"/>
<path d="M314.575 89.22C313.935 89.22 313.495 89.01 313.255 88.58C313.015 88.15 313.045 87.62 313.335 86.98L324.335 61.94C324.765 60.95 325.415 60.46 326.295 60.46C326.695 60.46 327.065 60.57 327.395 60.8C327.725 61.03 328.005 61.41 328.215 61.94L339.255 86.98C339.545 87.62 339.585 88.15 339.375 88.58C339.165 89.01 338.735 89.22 338.095 89.22C337.615 89.22 337.225 89.09 336.935 88.84C336.645 88.59 336.405 88.22 336.215 87.74L333.615 81.74H318.935L316.375 87.74C315.945 88.73 315.345 89.22 314.575 89.22ZM326.255 64.58L320.135 78.98H332.455L326.335 64.58H326.255Z" fill="#F7F7F6"/>
<path d="M347.528 96.4197C346.918 96.4197 346.498 96.1897 346.288 95.7197C346.078 95.2497 346.088 94.7297 346.328 94.1397L348.768 88.6197L341.408 71.4997C341.138 70.8897 341.138 70.3497 341.388 69.8997C341.638 69.4497 342.128 69.2197 342.848 69.2197C343.568 69.2197 344.138 69.6497 344.488 70.4997L350.528 85.2597L356.608 70.4997C356.818 70.0197 357.048 69.6897 357.288 69.4997C357.528 69.3097 357.878 69.2197 358.328 69.2197C358.938 69.2197 359.358 69.4497 359.568 69.8997C359.778 70.3497 359.768 70.8697 359.528 71.4597L349.288 95.1397C349.078 95.6197 348.838 95.9497 348.588 96.1397C348.338 96.3297 347.978 96.4197 347.528 96.4197Z" fill="#F7F7F6"/>
<path d="M370.494 89.3001C369.104 89.3001 367.764 89.1401 366.454 88.8201C365.144 88.5001 364.024 88.0301 363.094 87.4201C362.564 87.1001 362.284 86.6901 362.274 86.2001C362.264 85.7101 362.444 85.3301 362.814 85.0601C363.184 84.7901 363.684 84.8301 364.294 85.1801C365.144 85.7101 366.114 86.1101 367.194 86.3801C368.274 86.6501 369.344 86.7801 370.414 86.7801C372.364 86.7801 373.744 86.4901 374.574 85.9201C375.404 85.3501 375.814 84.5301 375.814 83.4601C375.814 82.3901 375.464 81.6301 374.754 81.1001C374.044 80.5701 373.054 80.3001 371.774 80.3001H368.294C367.364 80.3001 366.894 79.8901 366.894 79.0601C366.894 78.2301 367.364 77.8601 368.294 77.8601H371.374C372.524 77.8601 373.434 77.6001 374.114 77.0801C374.794 76.5601 375.134 75.8201 375.134 74.8601C375.134 73.9001 374.764 73.0901 374.034 72.5201C373.304 71.9501 372.094 71.6601 370.414 71.6601C369.344 71.6601 368.344 71.7701 367.394 72.0001C366.444 72.2301 365.534 72.5901 364.654 73.1001C364.014 73.4501 363.504 73.4901 363.134 73.2201C362.764 72.9501 362.584 72.5801 362.594 72.1001C362.604 71.6201 362.884 71.2301 363.414 70.9401C365.494 69.7401 367.964 69.1401 370.814 69.1401C373.294 69.1401 375.144 69.6201 376.374 70.5801C377.604 71.5401 378.214 72.8901 378.214 74.6201C378.214 75.6101 377.924 76.4801 377.354 77.2401C376.784 78.0001 376.004 78.5501 375.014 78.9001C376.214 79.1901 377.164 79.7501 377.854 80.5601C378.544 81.3701 378.894 82.3801 378.894 83.5801C378.894 85.3101 378.184 86.7001 376.774 87.7401C375.364 88.7801 373.264 89.3001 370.494 89.3001Z" fill="#F7F7F6"/>
<path d="M390.094 89.3001C388.764 89.3001 387.564 89.0401 386.514 88.5201C385.464 88.0001 384.624 87.2901 384.014 86.3801C383.404 85.4701 383.094 84.4601 383.094 83.3401C383.094 81.9301 383.464 80.8101 384.194 79.9801C384.924 79.1501 386.144 78.5601 387.834 78.2001C389.524 77.8401 391.844 77.6601 394.774 77.6601H396.054V76.4201C396.054 74.7701 395.714 73.5701 395.034 72.8401C394.354 72.1101 393.264 71.7401 391.774 71.7401C390.844 71.7401 389.904 71.8601 388.954 72.1001C388.004 72.3401 387.024 72.7301 386.014 73.2601C385.564 73.5001 385.184 73.5501 384.874 73.4001C384.564 73.2501 384.354 73.0101 384.234 72.6801C384.114 72.3501 384.114 72.0001 384.234 71.6401C384.354 71.2801 384.614 71.0101 385.014 70.8201C386.164 70.2301 387.314 69.8101 388.474 69.5401C389.634 69.2701 390.734 69.1401 391.774 69.1401C394.284 69.1401 396.144 69.7501 397.354 70.9801C398.564 72.2101 399.174 74.1101 399.174 76.7001V87.5401C399.174 88.6601 398.684 89.2201 397.694 89.2201C396.654 89.2201 396.134 88.6601 396.134 87.5401V85.5801C395.624 86.7301 394.844 87.6301 393.794 88.3001C392.744 88.9701 391.504 89.3001 390.094 89.3001ZM390.614 86.8601C392.214 86.8601 393.524 86.3101 394.534 85.2001C395.544 84.0901 396.054 82.6901 396.054 80.9801V79.7801H394.814C392.654 79.7801 390.954 79.8801 389.714 80.0801C388.474 80.2801 387.604 80.6301 387.114 81.1201C386.624 81.6101 386.374 82.2901 386.374 83.1401C386.374 84.2301 386.754 85.1301 387.514 85.8201C388.274 86.5101 389.304 86.8601 390.614 86.8601Z" fill="#F7F7F6"/>
<path d="M407.132 89.2197C406.042 89.2197 405.492 88.6597 405.492 87.5397V70.8597C405.492 69.7697 406.042 69.2197 407.132 69.2197C408.222 69.2197 408.732 69.7697 408.732 70.8597V77.5797H419.332V70.8597C419.332 69.7697 419.862 69.2197 420.932 69.2197C422.002 69.2197 422.572 69.7697 422.572 70.8597V87.5397C422.572 88.6597 422.022 89.2197 420.932 89.2197C419.842 89.2197 419.332 88.6597 419.332 87.5397V80.2197H408.732V87.5397C408.732 88.6597 408.202 89.2197 407.132 89.2197Z" fill="#F7F7F6"/>
<path d="M220.41 129.22C219.42 129.22 218.93 128.63 218.93 127.46V110.82C218.93 109.75 219.42 109.22 220.41 109.22C221.4 109.22 221.89 109.75 221.89 110.82V124.54L232.53 110.26C232.74 109.97 232.99 109.72 233.27 109.52C233.55 109.32 233.93 109.22 234.41 109.22C235.4 109.22 235.89 109.79 235.89 110.94V127.62C235.89 128.69 235.4 129.22 234.41 129.22C233.42 129.22 232.93 128.69 232.93 127.62V113.9L222.25 128.18C222.06 128.45 221.83 128.69 221.55 128.9C221.27 129.11 220.89 129.22 220.41 129.22Z" fill="#F7F7F6"/>
<path d="M251.892 134.42C250.962 134.42 250.492 133.91 250.492 132.9V127.94C250.492 126.87 251.022 126.34 252.092 126.34H252.572C253.482 124.95 254.132 123.38 254.532 121.62C254.932 119.86 255.132 117.73 255.132 115.22V111.34C255.132 110.11 255.742 109.5 256.972 109.5H267.052C268.282 109.5 268.892 110.11 268.892 111.34V126.34H270.372C271.442 126.34 271.972 126.87 271.972 127.94V132.9C271.972 133.91 271.502 134.42 270.572 134.42C269.642 134.42 269.172 133.91 269.172 132.9V128.94H253.252V132.9C253.252 133.91 252.802 134.42 251.892 134.42ZM255.652 126.34H265.812V112.06H258.012V115.78C258.012 117.78 257.812 119.71 257.412 121.58C257.012 123.45 256.422 125.03 255.652 126.34Z" fill="#F7F7F6"/>
<path d="M277.928 136.42C276.858 136.42 276.328 135.87 276.328 134.78V110.86C276.328 109.77 276.848 109.22 277.888 109.22C278.978 109.22 279.528 109.77 279.528 110.86V112.94C280.088 111.77 280.958 110.84 282.128 110.16C283.298 109.48 284.648 109.14 286.168 109.14C287.898 109.14 289.418 109.55 290.708 110.36C291.998 111.17 292.998 112.33 293.708 113.84C294.418 115.35 294.768 117.14 294.768 119.22C294.768 121.3 294.418 123.05 293.708 124.56C292.998 126.07 291.998 127.23 290.708 128.06C289.418 128.89 287.898 129.3 286.168 129.3C284.678 129.3 283.338 128.97 282.168 128.3C280.998 127.63 280.128 126.71 279.568 125.54V134.78C279.568 135.87 279.018 136.42 277.928 136.42ZM285.488 126.7C287.298 126.7 288.758 126.05 289.848 124.76C290.938 123.47 291.488 121.62 291.488 119.22C291.488 116.82 290.938 114.94 289.848 113.66C288.758 112.38 287.298 111.74 285.488 111.74C283.678 111.74 282.218 112.38 281.128 113.66C280.038 114.94 279.488 116.79 279.488 119.22C279.488 121.65 280.038 123.47 281.128 124.76C282.218 126.05 283.678 126.7 285.488 126.7Z" fill="#F7F7F6"/>
<path d="M300.692 129.1C300.022 129.1 299.492 128.89 299.092 128.48C298.692 128.07 298.492 127.54 298.492 126.9C298.492 126.26 298.692 125.73 299.092 125.32C299.492 124.91 300.022 124.7 300.692 124.7C301.362 124.7 301.882 124.91 302.272 125.32C302.662 125.73 302.852 126.26 302.852 126.9C302.852 127.54 302.662 128.07 302.272 128.48C301.882 128.89 301.362 129.1 300.692 129.1Z" fill="#F7F7F6"/>
<path d="M50.0034 209.19C48.6834 209.19 48.0234 208.41 48.0234 206.85V179.04C48.0234 177.57 48.7634 176.83 50.2334 176.83C51.7034 176.83 52.3434 177.57 52.3434 179.04V201.27L69.7634 178.19C70.1534 177.68 70.5134 177.33 70.8434 177.13C71.1734 176.93 71.6234 176.84 72.1934 176.84C72.7634 176.84 73.2234 177.04 73.5634 177.42C73.9034 177.81 74.0834 178.34 74.0834 179V206.95C74.0834 208.45 73.3634 209.2 71.9234 209.2C70.4834 209.2 69.7634 208.45 69.7634 206.95V184.72L52.3434 207.8C51.9834 208.31 51.6434 208.67 51.3334 208.88C51.0234 209.09 50.5734 209.2 50.0034 209.2V209.19Z" fill="#F7F7F6"/>
<path d="M83.4853 209.19C81.9553 209.19 81.1953 208.42 81.1953 206.89V188.89C81.1953 187.36 81.9653 186.6 83.4853 186.6C85.0053 186.6 85.7353 187.37 85.7353 188.89V195.78H96.6753V188.89C96.6753 187.36 97.4253 186.6 98.9253 186.6C100.425 186.6 101.215 187.37 101.215 188.89V206.89C101.215 208.42 100.445 209.19 98.9253 209.19C97.4053 209.19 96.6753 208.42 96.6753 206.89V199.38H85.7353V206.89C85.7353 208.42 84.9853 209.19 83.4853 209.19Z" fill="#F7F7F6"/>
<path d="M117.73 209.28C115.48 209.28 113.54 208.81 111.9 207.86C110.26 206.92 109 205.58 108.1 203.86C107.2 202.14 106.75 200.1 106.75 197.76C106.75 194.28 107.74 191.54 109.72 189.53C111.7 187.52 114.37 186.51 117.73 186.51C118.78 186.51 119.88 186.67 121.04 186.98C122.19 187.3 123.27 187.81 124.26 188.53C124.74 188.83 125.02 189.21 125.09 189.68C125.17 190.15 125.09 190.58 124.86 190.98C124.64 191.39 124.31 191.65 123.89 191.79C123.47 191.92 122.99 191.84 122.45 191.54C121.73 191.03 120.99 190.66 120.24 190.44C119.49 190.22 118.77 190.1 118.08 190.1C115.95 190.1 114.31 190.77 113.15 192.1C111.99 193.43 111.42 195.33 111.42 197.79C111.42 200.25 112 202.18 113.15 203.57C114.3 204.96 115.95 205.66 118.08 205.66C118.77 205.66 119.48 205.56 120.22 205.35C120.95 205.14 121.7 204.78 122.45 204.27C122.99 203.97 123.46 203.89 123.87 204.04C124.28 204.19 124.57 204.47 124.77 204.87C124.97 205.27 125.02 205.71 124.95 206.17C124.88 206.64 124.6 207.02 124.12 207.32C123.16 208.01 122.12 208.51 120.99 208.81C119.86 209.11 118.78 209.26 117.73 209.26V209.28Z" fill="#F7F7F6"/>
<path d="M136.452 209.19C134.922 209.19 134.163 208.42 134.163 206.89V190.56H128.042C126.722 190.56 126.062 189.95 126.062 188.72C126.062 187.49 126.722 186.92 128.042 186.92H144.823C146.143 186.92 146.803 187.52 146.803 188.72C146.803 189.92 146.143 190.56 144.823 190.56H138.702V206.89C138.702 208.42 137.952 209.19 136.452 209.19Z" fill="#F7F7F6"/>
<path d="M152.245 209.19C150.835 209.19 150.125 208.38 150.125 206.76V188.8C150.125 187.33 150.815 186.59 152.195 186.59C153.575 186.59 154.265 187.33 154.265 188.8V202.84L165.285 188.08C165.555 187.69 165.885 187.35 166.275 187.04C166.665 186.74 167.205 186.59 167.895 186.59C169.275 186.59 169.965 187.4 169.965 189.02V206.98C169.965 208.45 169.295 209.19 167.945 209.19C166.595 209.19 165.825 208.45 165.825 206.98V192.98L154.795 207.74C154.525 208.1 154.195 208.43 153.805 208.73C153.415 209.03 152.885 209.18 152.235 209.18L152.245 209.19Z" fill="#F7F7F6"/>
<path d="M183.705 209.19C182.175 209.19 181.405 208.42 181.405 206.89V190.56H175.285C173.965 190.56 173.305 189.95 173.305 188.72C173.305 187.49 173.965 186.92 175.285 186.92H192.075C193.395 186.92 194.055 187.52 194.055 188.72C194.055 189.92 193.395 190.56 192.075 190.56H185.955V206.89C185.955 208.42 185.205 209.19 183.705 209.19Z" fill="#F7F7F6"/>
<path d="M202.732 217.29C201.892 217.29 201.312 216.98 201.002 216.37C200.682 215.75 200.712 215.04 201.072 214.23L203.732 208.29L195.722 189.71C195.362 188.9 195.352 188.18 195.702 187.55C196.052 186.92 196.732 186.6 197.752 186.6C198.292 186.6 198.732 186.74 199.082 187.01C199.422 187.28 199.732 187.75 200.002 188.41L206.172 203.62L212.422 188.41C212.692 187.72 213.002 187.25 213.362 186.99C213.722 186.74 214.222 186.61 214.852 186.61C215.662 186.61 216.212 186.93 216.512 187.56C216.812 188.19 216.802 188.89 216.472 189.68L205.222 215.56C204.922 216.25 204.582 216.71 204.212 216.95C203.832 217.19 203.352 217.31 202.752 217.31L202.732 217.29Z" fill="#F7F7F6"/>
<path d="M242.336 215.04C241.046 215.04 240.396 214.38 240.396 213.06V208.88H223.696C222.166 208.88 221.406 208.12 221.406 206.59V188.9C221.406 187.37 222.176 186.61 223.696 186.61C225.216 186.61 225.946 187.38 225.946 188.9V205.28H236.206V188.9C236.206 187.37 236.966 186.61 238.496 186.61C240.026 186.61 240.746 187.38 240.746 188.9V205.28H242.096C243.536 205.28 244.256 206 244.256 207.44V213.06C244.256 214.38 243.606 215.04 242.326 215.04H242.336Z" fill="#F7F7F6"/>
<path d="M250.932 209.19C249.522 209.19 248.812 208.38 248.812 206.76V188.8C248.812 187.33 249.503 186.59 250.883 186.59C252.263 186.59 252.952 187.33 252.952 188.8V202.84L263.983 188.08C264.253 187.69 264.583 187.35 264.973 187.04C265.363 186.74 265.902 186.59 266.592 186.59C267.972 186.59 268.663 187.4 268.663 189.02V206.98C268.663 208.45 267.993 209.19 266.643 209.19C265.293 209.19 264.522 208.45 264.522 206.98V192.98L253.503 207.74C253.233 208.1 252.902 208.43 252.512 208.73C252.122 209.03 251.592 209.18 250.932 209.18V209.19Z" fill="#F7F7F6"/>
<path d="M285.084 209.28C282.864 209.28 280.944 208.82 279.324 207.88C277.704 206.95 276.454 205.64 275.564 203.94C274.674 202.25 274.234 200.23 274.234 197.89C274.234 195.55 274.674 193.53 275.564 191.84C276.444 190.15 277.704 188.83 279.324 187.9C280.944 186.97 282.864 186.5 285.084 186.5C287.304 186.5 289.134 186.97 290.754 187.9C292.374 188.83 293.634 190.14 294.534 191.84C295.434 193.54 295.884 195.55 295.884 197.89C295.884 200.23 295.434 202.25 294.534 203.94C293.634 205.64 292.374 206.95 290.754 207.88C289.134 208.81 287.244 209.28 285.084 209.28ZM285.084 205.77C286.944 205.77 288.444 205.1 289.584 203.75C290.724 202.4 291.294 200.45 291.294 197.9C291.294 195.35 290.724 193.41 289.584 192.07C288.444 190.74 286.944 190.07 285.084 190.07C283.224 190.07 281.674 190.74 280.544 192.07C279.404 193.4 278.834 195.35 278.834 197.9C278.834 200.45 279.404 202.4 280.544 203.75C281.684 205.1 283.204 205.77 285.084 205.77Z" fill="#F7F7F6"/>
<path d="M303.767 209.19C302.237 209.19 301.477 208.42 301.477 206.89V188.89C301.477 187.36 302.247 186.6 303.767 186.6C305.287 186.6 306.017 187.37 306.017 188.89V195.78H316.957V188.89C316.957 187.36 317.707 186.6 319.207 186.6C320.707 186.6 321.497 187.37 321.497 188.89V206.89C321.497 208.42 320.727 209.19 319.207 209.19C317.687 209.19 316.957 208.42 316.957 206.89V199.38H306.017V206.89C306.017 208.42 305.267 209.19 303.767 209.19Z" fill="#F7F7F6"/>
<path d="M335.354 209.28C333.824 209.28 332.454 208.98 331.264 208.38C330.064 207.78 329.114 206.97 328.404 205.95C327.694 204.93 327.344 203.78 327.344 202.49C327.344 200.87 327.754 199.59 328.584 198.66C329.414 197.73 330.774 197.06 332.674 196.63C334.584 196.21 337.154 196 340.394 196H341.924V194.83C341.924 193.12 341.564 191.89 340.844 191.14C340.124 190.39 338.934 190.02 337.294 190.02C336.334 190.02 335.334 190.14 334.304 190.38C333.264 190.62 332.194 191.03 331.084 191.59C330.454 191.89 329.934 191.94 329.534 191.73C329.134 191.52 328.854 191.19 328.704 190.74C328.554 190.29 328.574 189.82 328.744 189.34C328.924 188.86 329.294 188.5 329.864 188.26C331.184 187.66 332.484 187.22 333.784 186.93C335.074 186.64 336.284 186.5 337.424 186.5C340.424 186.5 342.644 187.21 344.084 188.64C345.524 190.06 346.244 192.29 346.244 195.32V206.88C346.244 208.41 345.534 209.18 344.124 209.18C342.714 209.18 341.964 208.41 341.964 206.88V205.22C341.424 206.48 340.584 207.47 339.444 208.19C338.304 208.91 336.934 209.27 335.344 209.27L335.354 209.28ZM336.254 206.04C337.874 206.04 339.224 205.47 340.304 204.33C341.384 203.19 341.924 201.75 341.924 200.01V198.8H340.434C338.244 198.8 336.524 198.91 335.284 199.12C334.044 199.33 333.154 199.68 332.624 200.18C332.094 200.67 331.834 201.36 331.834 202.23C331.834 203.37 332.224 204.29 333.004 205C333.784 205.71 334.864 206.06 336.244 206.06L336.254 206.04Z" fill="#F7F7F6"/>
<path d="M370.186 209.19C368.686 209.19 367.936 208.42 367.936 206.89V190.56H359.977V193.22C359.977 197.69 359.477 201.16 358.487 203.62C357.497 206.08 355.847 207.85 353.537 208.93C352.907 209.2 352.337 209.24 351.827 209.04C351.317 208.85 350.937 208.52 350.707 208.07C350.467 207.62 350.417 207.14 350.547 206.63C350.677 206.12 351.047 205.68 351.647 205.33C353.267 204.4 354.356 203 354.906 201.12C355.456 199.25 355.737 196.57 355.737 193.09V189.49C355.737 187.78 356.597 186.92 358.297 186.92H369.906C371.616 186.92 372.477 187.77 372.477 189.49V206.9C372.477 208.43 371.706 209.2 370.186 209.2V209.19Z" fill="#F7F7F6"/>
<path d="M381.61 208.87C380.08 208.87 379.32 208.11 379.32 206.58V188.89C379.32 187.36 380.08 186.6 381.61 186.6C383.14 186.6 383.86 187.37 383.86 188.89V194.51H390.11C392.93 194.51 395.07 195.12 396.54 196.33C398.01 197.54 398.75 199.31 398.75 201.62C398.75 203.93 397.99 205.6 396.46 206.91C394.93 208.21 392.82 208.87 390.12 208.87H381.62H381.61ZM383.86 205.76H389.53C391.09 205.76 392.3 205.42 393.17 204.75C394.04 204.07 394.47 203.03 394.47 201.62C394.47 200.21 394.04 199.23 393.17 198.58C392.3 197.93 391.08 197.61 389.53 197.61H383.86V205.75V205.76Z" fill="#F7F7F6"/>
<path d="M406.087 209.19C404.557 209.19 403.797 208.42 403.797 206.89V188.89C403.797 187.36 404.567 186.6 406.087 186.6C407.607 186.6 408.337 187.37 408.337 188.89V195.78H419.277V188.89C419.277 187.36 420.027 186.6 421.527 186.6C423.027 186.6 423.817 187.37 423.817 188.89V206.89C423.817 208.42 423.057 209.19 421.527 209.19C419.997 209.19 419.277 208.42 419.277 206.89V199.38H408.337V206.89C408.337 208.42 407.587 209.19 406.087 209.19Z" fill="#F7F7F6"/>
<path d="M437.674 209.28C436.144 209.28 434.784 208.98 433.584 208.38C432.384 207.78 431.434 206.97 430.724 205.95C430.014 204.93 429.664 203.78 429.664 202.49C429.664 200.87 430.074 199.59 430.904 198.66C431.724 197.73 433.094 197.06 434.994 196.63C436.904 196.21 439.474 196 442.714 196H444.244V194.83C444.244 193.12 443.884 191.89 443.164 191.14C442.444 190.39 441.254 190.02 439.614 190.02C438.654 190.02 437.654 190.14 436.624 190.38C435.584 190.62 434.514 191.03 433.404 191.59C432.774 191.89 432.254 191.94 431.854 191.73C431.444 191.52 431.174 191.19 431.024 190.74C430.874 190.29 430.884 189.82 431.064 189.34C431.244 188.86 431.614 188.5 432.184 188.26C433.504 187.66 434.804 187.22 436.104 186.93C437.394 186.64 438.604 186.5 439.744 186.5C442.744 186.5 444.964 187.21 446.404 188.64C447.844 190.07 448.564 192.29 448.564 195.32V206.88C448.564 208.41 447.854 209.18 446.444 209.18C445.034 209.18 444.284 208.41 444.284 206.88V205.22C443.744 206.48 442.904 207.47 441.764 208.19C440.624 208.91 439.254 209.27 437.664 209.27L437.674 209.28ZM438.574 206.04C440.194 206.04 441.544 205.47 442.624 204.33C443.704 203.19 444.244 201.75 444.244 200.01V198.8H442.764C440.574 198.8 438.854 198.91 437.614 199.12C436.364 199.33 435.484 199.68 434.954 200.18C434.424 200.67 434.164 201.36 434.164 202.23C434.164 203.37 434.554 204.29 435.334 205C436.114 205.71 437.194 206.06 438.574 206.06V206.04Z" fill="#F7F7F6"/>
<path d="M471.061 209.19C469.651 209.19 468.941 208.47 468.941 207.03V200.86H466.111C465.061 200.86 464.151 201.13 463.391 201.67C462.631 202.21 462.021 202.9 461.571 203.74L459.191 207.92C458.771 208.61 458.271 209.01 457.681 209.13C457.091 209.25 456.551 209.16 456.041 208.86C455.531 208.56 455.181 208.13 454.981 207.58C454.781 207.03 454.871 206.43 455.231 205.8L457.031 202.74C457.391 202.14 457.851 201.59 458.401 201.1C458.951 200.61 459.561 200.24 460.221 200C458.361 199.7 456.931 199 455.941 197.91C454.951 196.81 454.461 195.38 454.461 193.61C454.461 191.57 455.151 189.94 456.531 188.73C457.911 187.52 459.961 186.91 462.691 186.91H470.841C472.401 186.91 473.181 187.69 473.181 189.25V207.03C473.181 207.72 472.981 208.25 472.591 208.63C472.201 209 471.691 209.19 471.061 209.19ZM463.631 197.76H468.941V190.02H463.631C461.981 190.02 460.761 190.36 459.991 191.03C459.211 191.7 458.821 192.64 458.821 193.84C458.821 195.04 459.211 196.03 459.991 196.72C460.771 197.41 461.981 197.76 463.631 197.76Z" fill="#F7F7F6"/>
<path d="M153.895 255.28C152.605 255.28 151.305 255.1 149.975 254.74C148.655 254.38 147.545 253.88 146.645 253.25C146.135 252.95 145.845 252.58 145.765 252.13C145.685 251.68 145.765 251.26 145.985 250.87C146.205 250.48 146.525 250.21 146.935 250.06C147.335 249.91 147.765 249.99 148.215 250.29C149.025 250.86 149.905 251.28 150.845 251.55C151.795 251.82 152.695 251.96 153.565 251.96C155.605 251.96 157.235 251.4 158.445 250.27C159.655 249.14 160.405 247.53 160.675 245.43H151.635C150.315 245.43 149.655 244.88 149.655 243.76C149.655 242.64 150.315 242.09 151.635 242.09H160.675C160.405 240.2 159.685 238.69 158.515 237.57C157.345 236.45 155.695 235.88 153.565 235.88C152.725 235.88 151.835 236.01 150.885 236.26C149.945 236.51 149.045 236.93 148.205 237.5C147.725 237.8 147.295 237.88 146.905 237.75C146.515 237.61 146.215 237.36 146.005 236.98C145.795 236.6 145.725 236.19 145.805 235.74C145.875 235.29 146.175 234.9 146.685 234.57C147.585 233.97 148.685 233.48 149.995 233.08C151.295 232.69 152.595 232.5 153.885 232.5C157.335 232.5 160.055 233.51 162.055 235.52C164.055 237.53 165.045 240.27 165.045 243.75C165.045 246.12 164.595 248.17 163.695 249.89C162.795 251.62 161.505 252.94 159.825 253.87C158.145 254.8 156.165 255.27 153.885 255.27L153.895 255.28Z" fill="#F7F7F6"/>
<path d="M172.923 255.19C171.393 255.19 170.633 254.42 170.633 252.89V234.98C170.633 233.45 171.403 232.69 172.923 232.69C174.443 232.69 175.173 233.45 175.173 234.98V241.82H178.863L185.073 233.72C185.493 233.12 185.983 232.79 186.533 232.73C187.083 232.67 187.583 232.78 188.013 233.07C188.453 233.36 188.723 233.76 188.823 234.28C188.923 234.81 188.773 235.37 188.353 235.97L183.183 242.76C183.903 243.09 184.573 243.59 185.183 244.27C185.793 244.94 186.433 245.87 187.093 247.04L190.063 252.08C190.423 252.71 190.493 253.28 190.293 253.79C190.083 254.3 189.733 254.68 189.233 254.91C188.743 255.15 188.213 255.21 187.663 255.09C187.103 254.97 186.633 254.58 186.243 253.92L182.953 248.3C182.263 247.16 181.593 246.39 180.953 245.98C180.303 245.57 179.413 245.37 178.273 245.37H175.163V252.88C175.163 254.41 174.413 255.18 172.913 255.18L172.923 255.19Z" fill="#F7F7F6"/>
<path d="M204.553 255.28C202.333 255.28 200.413 254.82 198.793 253.88C197.173 252.95 195.923 251.64 195.033 249.94C194.153 248.25 193.703 246.23 193.703 243.89C193.703 241.55 194.143 239.53 195.033 237.84C195.913 236.15 197.173 234.83 198.793 233.9C200.413 232.97 202.333 232.5 204.553 232.5C206.773 232.5 208.603 232.97 210.223 233.9C211.843 234.83 213.103 236.14 214.003 237.84C214.903 239.54 215.353 241.55 215.353 243.89C215.353 246.23 214.903 248.25 214.003 249.94C213.103 251.64 211.843 252.95 210.223 253.88C208.603 254.81 206.713 255.28 204.553 255.28ZM204.553 251.77C206.413 251.77 207.913 251.1 209.053 249.75C210.193 248.4 210.763 246.45 210.763 243.9C210.763 241.35 210.193 239.41 209.053 238.07C207.913 236.74 206.413 236.07 204.553 236.07C202.693 236.07 201.143 236.74 200.013 238.07C198.873 239.4 198.303 241.35 198.303 243.9C198.303 246.45 198.873 248.4 200.013 249.75C201.153 251.1 202.673 251.77 204.553 251.77Z" fill="#F7F7F6"/>
<path d="M223.235 255.19C221.705 255.19 220.945 254.42 220.945 252.89V234.89C220.945 233.36 221.705 232.6 223.235 232.6C224.765 232.6 225.485 233.37 225.485 234.89V241.78H236.415V234.89C236.415 233.36 237.165 232.6 238.665 232.6C240.165 232.6 240.955 233.37 240.955 234.89V252.89C240.955 254.42 240.195 255.19 238.665 255.19C237.135 255.19 236.415 254.42 236.415 252.89V245.38H225.485V252.89C225.485 254.42 224.735 255.19 223.235 255.19Z" fill="#F7F7F6"/>
<path d="M257.342 255.28C255.122 255.28 253.202 254.82 251.582 253.88C249.962 252.95 248.712 251.64 247.822 249.94C246.932 248.25 246.492 246.23 246.492 243.89C246.492 241.55 246.932 239.53 247.822 237.84C248.702 236.15 249.962 234.83 251.582 233.9C253.202 232.97 255.122 232.5 257.342 232.5C259.562 232.5 261.392 232.97 263.012 233.9C264.632 234.83 265.892 236.14 266.792 237.84C267.692 239.54 268.142 241.55 268.142 243.89C268.142 246.23 267.692 248.25 266.792 249.94C265.892 251.64 264.632 252.95 263.012 253.88C261.392 254.81 259.502 255.28 257.342 255.28ZM257.342 251.77C259.202 251.77 260.702 251.1 261.842 249.75C262.982 248.4 263.552 246.45 263.552 243.9C263.552 241.35 262.982 239.41 261.842 238.07C260.702 236.74 259.202 236.07 257.342 236.07C255.482 236.07 253.932 236.74 252.802 238.07C251.662 239.4 251.092 241.35 251.092 243.9C251.092 246.45 251.662 248.4 252.802 249.75C253.942 251.1 255.452 251.77 257.342 251.77Z" fill="#F7F7F6"/>
<path d="M275.741 255.19C274.391 255.19 273.711 254.47 273.711 253.03V235.03C273.711 233.41 274.401 232.6 275.781 232.6C276.441 232.6 276.951 232.77 277.311 233.1C277.671 233.43 277.971 233.81 278.211 234.22L285.411 246.82L292.561 234.22C292.831 233.77 293.141 233.39 293.511 233.07C293.871 232.76 294.371 232.6 294.991 232.6C296.371 232.6 297.061 233.41 297.061 235.03V253.03C297.061 254.47 296.391 255.19 295.031 255.19C293.671 255.19 293.051 254.47 293.051 253.03V239.98L286.971 250.51C286.821 250.78 286.621 251.02 286.391 251.23C286.151 251.44 285.821 251.54 285.401 251.54C284.951 251.54 284.611 251.43 284.391 251.2C284.171 250.97 283.981 250.74 283.831 250.5L277.711 239.97V253.02C277.711 254.46 277.051 255.18 275.731 255.18L275.741 255.19Z" fill="#F7F7F6"/>
<path d="M306.034 255.19C304.624 255.19 303.914 254.38 303.914 252.76V234.8C303.914 233.33 304.604 232.59 305.984 232.59C307.364 232.59 308.054 233.33 308.054 234.8V248.84L319.074 234.08C319.344 233.69 319.674 233.35 320.064 233.04C320.454 232.74 320.994 232.59 321.684 232.59C323.064 232.59 323.754 233.4 323.754 235.02V252.98C323.754 254.45 323.084 255.19 321.734 255.19C320.384 255.19 319.614 254.45 319.614 252.98V238.98L308.584 253.74C308.314 254.1 307.984 254.43 307.594 254.73C307.204 255.03 306.674 255.18 306.024 255.18L306.034 255.19Z" fill="#F7F7F6"/>
<path d="M332.892 255.19C331.362 255.19 330.602 254.42 330.602 252.89V234.98C330.602 233.45 331.372 232.69 332.892 232.69C334.412 232.69 335.142 233.45 335.142 234.98V241.82H338.832L345.042 233.72C345.462 233.12 345.952 232.79 346.502 232.73C347.052 232.67 347.552 232.78 347.982 233.07C348.422 233.36 348.692 233.76 348.792 234.28C348.892 234.81 348.742 235.37 348.322 235.97L343.152 242.76C343.872 243.09 344.542 243.59 345.152 244.27C345.762 244.94 346.402 245.87 347.062 247.04L350.032 252.08C350.392 252.71 350.462 253.28 350.262 253.79C350.052 254.3 349.702 254.68 349.202 254.91C348.712 255.15 348.182 255.21 347.632 255.09C347.072 254.97 346.602 254.58 346.212 253.92L342.922 248.3C342.232 247.16 341.562 246.39 340.922 245.98C340.272 245.57 339.382 245.37 338.242 245.37H335.132V252.88C335.132 254.41 334.382 255.18 332.882 255.18L332.892 255.19Z" fill="#F7F7F6"/>
<path d="M362.012 255.28C360.482 255.28 359.112 254.98 357.912 254.38C356.712 253.78 355.762 252.97 355.052 251.95C354.342 250.93 353.992 249.78 353.992 248.49C353.992 246.87 354.402 245.59 355.232 244.66C356.062 243.73 357.422 243.06 359.332 242.63C361.232 242.21 363.812 242 367.052 242H368.582V240.83C368.582 239.12 368.222 237.89 367.502 237.14C366.782 236.39 365.592 236.02 363.942 236.02C362.982 236.02 361.982 236.14 360.952 236.38C359.912 236.62 358.842 237.03 357.732 237.59C357.102 237.89 356.582 237.94 356.182 237.73C355.782 237.52 355.502 237.19 355.352 236.74C355.202 236.29 355.222 235.82 355.392 235.34C355.572 234.86 355.942 234.5 356.512 234.26C357.832 233.66 359.132 233.22 360.432 232.93C361.732 232.64 362.932 232.5 364.082 232.5C367.082 232.5 369.302 233.21 370.742 234.64C372.182 236.07 372.902 238.29 372.902 241.32V252.88C372.902 254.41 372.192 255.18 370.782 255.18C369.372 255.18 368.622 254.41 368.622 252.88V251.22C368.082 252.48 367.242 253.47 366.102 254.19C364.962 254.91 363.602 255.27 362.012 255.27V255.28ZM362.912 252.04C364.532 252.04 365.882 251.47 366.962 250.33C368.042 249.19 368.582 247.75 368.582 246.01V244.8H367.092C364.902 244.8 363.182 244.91 361.942 245.12C360.702 245.33 359.812 245.68 359.292 246.18C358.762 246.67 358.502 247.36 358.502 248.23C358.502 249.37 358.892 250.29 359.672 251C360.452 251.71 361.532 252.06 362.912 252.06V252.04Z" fill="#F7F7F6"/>
<path d="M218.339 682C217.637 682 217.13 681.844 216.818 681.532C216.506 681.194 216.35 680.739 216.35 680.167C216.35 679.803 216.441 679.452 216.623 679.114C216.805 678.776 217.065 678.425 217.403 678.061L225.71 669.169C226.984 667.817 227.894 666.582 228.44 665.464C229.012 664.32 229.298 663.176 229.298 662.032C229.298 660.576 228.856 659.471 227.972 658.717C227.088 657.963 225.788 657.586 224.072 657.586C223.032 657.586 222.031 657.742 221.069 658.054C220.107 658.366 219.145 658.873 218.183 659.575C217.793 659.835 217.429 659.952 217.091 659.926C216.753 659.9 216.454 659.77 216.194 659.536C215.96 659.302 215.804 659.016 215.726 658.678C215.648 658.34 215.661 657.989 215.765 657.625C215.869 657.261 216.116 656.949 216.506 656.689C217.572 655.883 218.807 655.259 220.211 654.817C221.615 654.375 223.045 654.154 224.501 654.154C226.399 654.154 227.998 654.453 229.298 655.051C230.624 655.623 231.625 656.468 232.301 657.586C232.977 658.704 233.315 660.069 233.315 661.681C233.315 662.773 233.133 663.839 232.769 664.879C232.431 665.919 231.898 666.985 231.17 668.077C230.468 669.143 229.545 670.274 228.401 671.47L220.523 679.738V678.607H232.925C233.497 678.607 233.939 678.75 234.251 679.036C234.563 679.322 234.719 679.738 234.719 680.284C234.719 680.83 234.563 681.259 234.251 681.571C233.939 681.857 233.497 682 232.925 682H218.339ZM248.315 682.351C245.117 682.351 242.673 681.142 240.983 678.724C239.319 676.28 238.487 672.783 238.487 668.233C238.487 665.139 238.864 662.552 239.618 660.472C240.372 658.392 241.477 656.819 242.933 655.753C244.389 654.687 246.183 654.154 248.315 654.154C251.539 654.154 253.983 655.35 255.647 657.742C257.311 660.108 258.143 663.592 258.143 668.194C258.143 671.236 257.766 673.81 257.012 675.916C256.258 678.022 255.153 679.621 253.697 680.713C252.241 681.805 250.447 682.351 248.315 682.351ZM248.315 678.997C250.317 678.997 251.786 678.126 252.722 676.384C253.684 674.616 254.165 671.886 254.165 668.194C254.165 664.476 253.684 661.772 252.722 660.082C251.786 658.366 250.317 657.508 248.315 657.508C246.339 657.508 244.87 658.366 243.908 660.082C242.946 661.772 242.465 664.476 242.465 668.194C242.465 671.886 242.946 674.616 243.908 676.384C244.87 678.126 246.339 678.997 248.315 678.997ZM265.109 682C264.407 682 263.9 681.844 263.588 681.532C263.276 681.194 263.12 680.739 263.12 680.167C263.12 679.803 263.211 679.452 263.393 679.114C263.575 678.776 263.835 678.425 264.173 678.061L272.48 669.169C273.754 667.817 274.664 666.582 275.21 665.464C275.782 664.32 276.068 663.176 276.068 662.032C276.068 660.576 275.626 659.471 274.742 658.717C273.858 657.963 272.558 657.586 270.842 657.586C269.802 657.586 268.801 657.742 267.839 658.054C266.877 658.366 265.915 658.873 264.953 659.575C264.563 659.835 264.199 659.952 263.861 659.926C263.523 659.9 263.224 659.77 262.964 659.536C262.73 659.302 262.574 659.016 262.496 658.678C262.418 658.34 262.431 657.989 262.535 657.625C262.639 657.261 262.886 656.949 263.276 656.689C264.342 655.883 265.577 655.259 266.981 654.817C268.385 654.375 269.815 654.154 271.271 654.154C273.169 654.154 274.768 654.453 276.068 655.051C277.394 655.623 278.395 656.468 279.071 657.586C279.747 658.704 280.085 660.069 280.085 661.681C280.085 662.773 279.903 663.839 279.539 664.879C279.201 665.919 278.668 666.985 277.94 668.077C277.238 669.143 276.315 670.274 275.171 671.47L267.293 679.738V678.607H279.695C280.267 678.607 280.709 678.75 281.021 679.036C281.333 679.322 281.489 679.738 281.489 680.284C281.489 680.83 281.333 681.259 281.021 681.571C280.709 681.857 280.267 682 279.695 682H265.109ZM288.494 682C287.792 682 287.285 681.844 286.973 681.532C286.661 681.194 286.505 680.739 286.505 680.167C286.505 679.803 286.596 679.452 286.778 679.114C286.96 678.776 287.22 678.425 287.558 678.061L295.865 669.169C297.139 667.817 298.049 666.582 298.595 665.464C299.167 664.32 299.453 663.176 299.453 662.032C299.453 660.576 299.011 659.471 298.127 658.717C297.243 657.963 295.943 657.586 294.227 657.586C293.187 657.586 292.186 657.742 291.224 658.054C290.262 658.366 289.3 658.873 288.338 659.575C287.948 659.835 287.584 659.952 287.246 659.926C286.908 659.9 286.609 659.77 286.349 659.536C286.115 659.302 285.959 659.016 285.881 658.678C285.803 658.34 285.816 657.989 285.92 657.625C286.024 657.261 286.271 656.949 286.661 656.689C287.727 655.883 288.962 655.259 290.366 654.817C291.77 654.375 293.2 654.154 294.656 654.154C296.554 654.154 298.153 654.453 299.453 655.051C300.779 655.623 301.78 656.468 302.456 657.586C303.132 658.704 303.47 660.069 303.47 661.681C303.47 662.773 303.288 663.839 302.924 664.879C302.586 665.919 302.053 666.985 301.325 668.077C300.623 669.143 299.7 670.274 298.556 671.47L290.678 679.738V678.607H303.08C303.652 678.607 304.094 678.75 304.406 679.036C304.718 679.322 304.874 679.738 304.874 680.284C304.874 680.83 304.718 681.259 304.406 681.571C304.094 681.857 303.652 682 303.08 682H288.494Z" fill="white"/>
</g>
<defs>
<clipPath id="clip0_1900_5300">
<rect width="520.93" height="736.75" fill="white"/>
</clipPath>
</defs>
</svg>
