<svg id="Layer_1" data-name="Layer 1" xmlns="http://www.w3.org/2000/svg" viewBox="0 0 5183.87 1332.77"><defs><style>.cls-1{fill:#303031;}</style></defs><path class="cls-1" d="M690.52,1086.72H624.63L725.5,859,579.89,533.57H649l124.46,301-25.22-3.26,120.4-297.72h65.89Z"/><path class="cls-1" d="M1061.45,640.94q0,35,7.72,56.95t27.26,31.72q19.52,9.76,52.87,9.76v54.5q-56.13,0-88.26-15.45t-45.15-49.21q-13-33.75-13-88.27V533.57h58.57Zm87.85,98.43h122.84v54.5H1149.3Zm139.92-205.8V907.76h-58.57V533.57Z"/><path class="cls-1" d="M1416.92,685.68h257.87q-2.44-32.52-15.86-56.94a96.79,96.79,0,0,0-37.83-38.23q-24.4-13.83-57.76-13.83t-61.41,14.64a114.79,114.79,0,0,0-45.15,42.3q-17.08,27.68-17.08,65.08l-.82,22q0,43.94,15.46,75.66t43.12,48.39q27.64,16.69,65.07,16.68,30.09,0,52.88-9.36a131.19,131.19,0,0,0,39.86-25.21,165,165,0,0,0,29.28-36.2l47.18,30.1a286.81,286.81,0,0,1-39.86,49.21q-22,21.57-54.5,33.76T1556,915.89q-50.44,0-90.29-25.22t-63-69.55q-23.19-44.32-23.19-100.46a192.48,192.48,0,0,1,1.22-22q1.23-10.56,2.85-20.34,8.12-45.54,32.54-80.12a167.58,167.58,0,0,1,62.23-53.69q37.83-19.11,85-19.12,52,0,91.52,23.59t61.42,65.89q22,42.32,22,100.87v9.76a60.75,60.75,0,0,1-.81,9.77H1416.92Z"/><path class="cls-1" d="M1812.26,536.82q14.65-58.58,51.66-99.24T1966,374.13q55.31-18.7,82.57-45.15t32.94-55.72h57.76a129.35,129.35,0,0,1-25.22,62.64q-21.17,28.49-55.32,50t-78.09,35.39q-51.24,17.08-80.53,50.84a185.82,185.82,0,0,0-40.27,76.47,353,353,0,0,0-11,88.26v78.9l-51.25-43.93Q1797.62,595.41,1812.26,536.82Zm179-11.39q55.3,0,98.83,25.22a188.12,188.12,0,0,1,69.15,69.14q25.62,43.94,25.62,100.87,0,56.13-25.62,100.46t-69.15,69.55q-43.53,25.23-98.83,25.22-54.51,0-98.43-27.25t-69.55-81.75q-25.63-54.49-25.63-135L1857,720.66q0,40.7,17.9,72.4a135,135,0,0,0,48,50q30.09,18.3,68.34,18.3t68.73-18.3a134,134,0,0,0,48.4-50q17.89-31.72,17.9-72.4t-17.9-72.8q-17.9-32.13-48.4-50t-68.73-17.9ZM1842,638.91q11.77-36.2,33.75-61.42A151,151,0,0,1,1927,538.85q29.3-13.41,64.27-13.42v54.5q-22,0-46,9.36a143.4,143.4,0,0,0-43.92,27.25,135.37,135.37,0,0,0-32.13,43.93q-12.21,26-12.21,60.19h-26.84Q1830.16,675.12,1842,638.91Z"/><path class="cls-1" d="M2332.87,533.57V907.76H2274.3V533.57Zm-24.4,149.67h275.76v54.51H2308.47Zm296.91-149.67V907.76h-58.57V533.57Z"/><path class="cls-1" d="M2716.82,936.23l4.07-85.41,302.6-345.73-4.06,85.42Zm58.57-80.53-58.57,80.53V533.57h58.57Zm248.1,52.06h-58.57V585.63l58.57-80.54Z"/><path class="cls-1" d="M3204.89,533.57V907.76h-58.57V533.57Zm218,0L3256.13,688.12l183,219.64H3366l-183-219.64,166.76-154.55Z"/><rect class="cls-1" x="4121.26" y="273.26" width="52.87" height="635.06"/><rect class="cls-1" x="4121.26" y="286.33" width="52.88" height="803.47" transform="translate(3431.84 4831.05) rotate(-89.62)"/><polygon class="cls-1" points="4148.9 728.14 3833.59 412.83 3870.98 375.44 4148.9 653.37 4424.42 377.85 4461.81 415.24 4148.9 728.14"/></svg>