<?xml version="1.0" encoding="utf-8"?>
<!-- Generator: Adobe Illustrator 25.4.1, SVG Export Plug-In . SVG Version: 6.00 Build 0)  -->
<svg version="1.1" id="Layer_1" xmlns="http://www.w3.org/2000/svg" xmlns:xlink="http://www.w3.org/1999/xlink" x="0px" y="0px"
	 viewBox="0 0 128 128" style="enable-background:new 0 0 128 128;" xml:space="preserve">
<style type="text/css">
	.st0{fill:#686969;}
	.st1{fill:#E8541D;}
	.st2{fill:#EBEBEB;}
	.st3{fill:none;stroke:#686969;stroke-width:11;stroke-miterlimit:10;}
	.st4{fill:none;stroke:#686969;stroke-width:12;stroke-miterlimit:10;}
	.st5{fill:none;stroke:#686969;stroke-width:11;stroke-linejoin:round;stroke-miterlimit:10;}
	.st6{fill:#E8541D;stroke:#E8541D;stroke-width:12;stroke-miterlimit:10;}
	.st7{fill:none;stroke:#EBEBEB;stroke-width:11;stroke-miterlimit:10;}
	.st8{fill:none;stroke:#EBEBEB;stroke-width:12;stroke-miterlimit:10;}
	.st9{fill:none;stroke:#E8541D;stroke-width:12;stroke-miterlimit:10;}
	.st10{fill:#FFFFFF;}
	.st11{fill:none;stroke:#FFFFFF;stroke-width:12;stroke-miterlimit:10;}
	.st12{fill:#303031;}
</style>
<g>
	<rect x="59.5" y="8.9" class="st12" width="9" height="108"/>
	<path class="st12" d="M69.7,118.1H58.3V7.7h11.5V118.1z M60.8,115.6h6.5V10.2h-6.5V115.6z"/>
</g>
<g>
	<polygon class="st12" points="3.1,83.5 3.2,74.5 124.9,75.4 124.8,84.4 	"/>
	<path class="st12" d="M126.1,85.7L1.9,84.7l0.1-11.5l124.2,0.9L126.1,85.7z M4.4,82.3l119.2,0.9l0-6.5L4.4,75.8L4.4,82.3z"/>
</g>
<g>
	<polygon class="st12" points="64.2,86.3 10.6,32.7 17,26.3 64.2,73.6 111.1,26.7 117.4,33.1 	"/>
	<path class="st12" d="M64.2,88L8.8,32.7l8.1-8.1l47.3,47.3l46.8-46.8l8.1,8.1L64.2,88z M12.4,32.7l51.8,51.8l51.4-51.4l-4.6-4.6
		L64.2,75.3L17,28.1L12.4,32.7z"/>
</g>
</svg>
