<svg width="128" height="128" viewBox="0 0 128 128" fill="none" xmlns="http://www.w3.org/2000/svg">
<path d="M52.9978 97.5801C44.1954 97.5761 35.5919 94.9623 28.2749 90.0691C20.9579 85.1758 15.256 78.2229 11.8902 70.0895C8.52443 61.956 7.64583 53.0071 9.36552 44.3743C11.0852 35.7416 15.3259 27.8125 21.5516 21.5897C27.7772 15.3669 35.7082 11.1297 44.3417 9.41386C52.9753 7.69806 61.9237 8.58067 70.0557 11.9501C78.1877 15.3196 85.138 21.0245 90.0279 28.3437C94.9179 35.6629 97.5278 44.2677 97.5278 53.0701C97.5146 64.8743 92.8182 76.1909 84.4695 84.5358C76.1208 92.8808 64.802 97.5721 52.9978 97.5801ZM52.9978 19.5801C46.3702 19.584 39.8925 21.5532 34.3841 25.2386C28.8756 28.9241 24.5836 34.1602 22.051 40.2848C19.5183 46.4095 18.8588 53.1476 20.1556 59.6472C21.4525 66.1467 24.6476 72.1157 29.3368 76.7994C34.0261 81.483 39.9989 84.671 46.5 85.9601C53.0011 87.2492 59.7384 86.5816 65.86 84.0416C71.9817 81.5017 77.2127 77.2035 80.8915 71.6906C84.5703 66.1777 86.5318 59.6977 86.5278 53.0701C86.5172 44.1825 82.9806 35.6622 76.6942 29.3796C70.4078 23.0969 61.8855 19.5654 52.9978 19.5601V19.5801Z" fill="#686969"/>
<path d="M84.5125 76.7404L76.7344 84.5186L112.083 119.867L119.861 112.089L84.5125 76.7404Z" fill="#686969"/>
</svg>
